<?xml version="1.0" standalone="no"?>
<!DOCTYPE svg PUBLIC "-//W3C//DTD SVG 20010904//EN"
 "http://www.w3.org/TR/2001/REC-SVG-20010904/DTD/svg10.dtd">
<svg version="1.0" xmlns="http://www.w3.org/2000/svg"
 width="501.000000pt" height="501.000000pt" viewBox="0 0 501.000000 501.000000"
 preserveAspectRatio="xMidYMid meet">
<metadata>
Created by potrace 1.11, written by Peter Selinger 2001-2013
</metadata>
<g transform="translate(0.000000,501.000000) scale(0.100000,-0.100000)"
fill="#000000" stroke="none">
<path d="M2512 4140 c-760 -74 -1277 -443 -1480 -1056 -118 -353 -116 -845 3
-1210 45 -136 138 -318 219 -425 367 -487 1058 -680 1956 -546 299 45 425 73
628 138 l62 21 1 521 c1 287 4 582 8 655 l6 132 -65 -7 c-84 -10 -175 -10
-274 0 l-79 8 6 -103 c13 -200 20 -715 12 -900 l-7 -186 -67 -30 c-176 -80
-442 -119 -740 -109 -195 7 -311 26 -458 78 -478 169 -762 551 -832 1119 -14
108 -14 408 -1 525 55 474 267 835 610 1035 224 131 568 200 853 172 319 -32
587 -153 814 -366 96 -90 127 -99 137 -38 16 85 40 171 68 240 17 40 29 75 26
77 -2 2 -55 27 -118 56 -208 94 -439 158 -680 189 -115 15 -493 21 -608 10z"/>
</g>
</svg>
