<svg id="Layer_3" data-name="Layer 3" xmlns="http://www.w3.org/2000/svg" width="10cm" height="13cm" viewBox="0 0 283.5 368.5"><defs><style>.cls-1{fill:#231f20;}</style></defs><title>mille-dinesen-logo</title><path class="cls-1" d="M159.1,350.1A32.1,32.1,0,1,1,191.2,318,32.2,32.2,0,0,1,159.1,350.1Zm0-63.1A31,31,0,1,0,190,318,31,31,0,0,0,159.1,287Z"/><path class="cls-1" d="M159.1,359a41.1,41.1,0,1,1,41-41A41.1,41.1,0,0,1,159.1,359Zm0-79.8A38.8,38.8,0,1,0,197.8,318,38.8,38.8,0,0,0,159.1,279.2Z"/><path class="cls-1" d="M141.7,279.7C67.2,279.7,6.6,219.1,6.6,144.6S67.2,9.5,141.7,9.5,276.9,70.1,276.9,144.6,216.2,279.7,141.7,279.7Zm0-268C68.5,11.7,8.9,71.4,8.9,144.6S68.5,277.5,141.7,277.5A133,133,0,0,0,274.6,144.6C274.6,71.4,215,11.7,141.7,11.7Z"/><path class="cls-1" d="M205.7,237.9a1.6,1.6,0,0,1-2.2-.4,1.5,1.5,0,0,1,.5-2.2,1.6,1.6,0,0,1,2.2.4A1.5,1.5,0,0,1,205.7,237.9Z"/><path class="cls-1" d="M176.5,245.2l1.4-.5,6.2,4.9-3.2-9.2,2-.7,4.6,13.7-1.3.5-8.1-6.6-2.5,10.2-1.3.4-4.7-13.6,2-.7,3.1,9.2Z"/><path class="cls-1" d="M160.1,260.9a7.4,7.4,0,1,1,6-8.4A7.1,7.1,0,0,1,160.1,260.9Zm-1.9-12.7a5.1,5.1,0,0,0-4.3,6.1,5.2,5.2,0,1,0,10.2-1.5C163.6,249.7,161.1,247.7,158.2,248.2Z"/><path class="cls-1" d="M140.9,247.5h1.5l5.5,14.5h-2.2l-4.1-10.9-4.4,10.8h-2.1Z"/><path class="cls-1" d="M123,254.5l.3-1.9,4.7.7.7-4.8-6.3-.9.3-2,8.3,1.3-2.1,14.3-8.2-1.3.3-1.9,6.1.9.6-3.6Z"/><path class="cls-1" d="M99.6,248.4a1.6,1.6,0,0,1,1.3-3,1.6,1.6,0,0,1,.8,2.1A1.6,1.6,0,0,1,99.6,248.4Z"/><path class="cls-1" d="M74.9,233.2l1.1-1.6,3.9,2.8,2.8-3.9-5.2-3.7,1.2-1.6,6.8,4.9-8.4,11.7L70.4,237l1.1-1.6,5,3.6,2.2-3Z"/><path class="cls-1" d="M66.3,218.9l4.4,4.2,3.6-1.6,1.6,1.5-14.4,6.2-1-1,5.8-14.5,1.5,1.5Zm2.4,5.1-3.2-3.2-2.1,5.4Z"/><path class="cls-1" d="M54.1,221.5l-6.2-7.7,1.6-1.2,2.4,3,9.8-7.7,1.3,1.6-9.8,7.8,2.4,3Z"/><path class="cls-1" d="M41,192.2a1.6,1.6,0,1,1,2.1.8A1.6,1.6,0,0,1,41,192.2Z"/><path class="cls-1" d="M35.7,168.6l6.7-1.4.4,2.1-14.1,2.8-1-5a4,4,0,0,1,.2-2.9,3.8,3.8,0,0,1,2.7-1.9,3.8,3.8,0,0,1,3.2.8,2.8,2.8,0,0,1,1,1.5l5.8-6.5.5,2.5L35.4,167Zm-2.5-2.5a2,2,0,0,0-.8-1.6,2.2,2.2,0,0,0-1.4-.2,1.7,1.7,0,0,0-1.2.8c-.3.3-.4.9-.2,1.8l.6,2.8,3.6-.7Z"/><path class="cls-1" d="M31.1,147.8h2l.2,4.7,4.9-.2-.4-6.4h1.9l.5,8.4-14.4.8-.4-8.2h1.9l.4,6.2,3.7-.2Z"/><path class="cls-1" d="M38.1,138.5l.4-6.3h2l-.6,8.4-14.4-1v-2Z"/><path class="cls-1" d="M39.4,118.3l-1.4,6,3.3,2.2-.4,2.1-12.8-8.9.3-1.4,15.4-2.7-.5,2ZM36.3,123l1-4.3-5.7,1Z"/><path class="cls-1" d="M44.5,113.1l-5.4-7.7-7.7,1.7.9-2.4,5.6-1.2-3.3-4.6.9-2.4,4.5,6.4,9.3-1.9-.9,2.3-7.2,1.5,4.2,6Z"/><path class="cls-1" d="M51.3,79a1.6,1.6,0,1,1,2.6,1.8,1.5,1.5,0,0,1-2.2.4A1.6,1.6,0,0,1,51.3,79Z"/><path class="cls-1" d="M72.2,69.3l-9.4-11,3.7-3.2A3.8,3.8,0,0,1,69.4,54a3.7,3.7,0,0,1,2.7,1.3,3.3,3.3,0,0,1,.8,2.7,4.4,4.4,0,0,1,4.3,1.3,4.3,4.3,0,0,1,1,3.6,5.3,5.3,0,0,1-1.8,2.8Zm2.7-4.9a3.1,3.1,0,0,0,1.3-2.1,2.7,2.7,0,0,0-.6-1.7,2.1,2.1,0,0,0-1.6-.8,2.8,2.8,0,0,0-2.3.9l-2.4,2.1,3.2,3.7Zm-5-4.7c.9-.8,1.1-1.3,1.1-1.8a1.4,1.4,0,0,0-.4-1.2,2.1,2.1,0,0,0-1.2-.7,2.6,2.6,0,0,0-1.9.9l-1.9,1.6,2.5,2.8Z"/><path class="cls-1" d="M84.9,48.8,86,50.4,82,53l2.6,4.1L90,53.6l1,1.6-7.1,4.6L76.1,47.7,83,43.2l1.1,1.7-5.2,3.3,2,3.1Z"/><path class="cls-1" d="M101.4,46l-5.6,2.5.2,4-2,.9-.5-15.6,1.3-.6,11.4,10.7-1.9.9Zm-5.6.4,4-1.8-4.2-4Z"/><path class="cls-1" d="M110.4,44.7a6.3,6.3,0,0,1-2.6-3.7l-2.3-8.1,2-.6,2.3,8.2a3.8,3.8,0,0,0,1.7,2.5,4,4,0,0,0,3.2.5,4.3,4.3,0,0,0,2.6-2.1,3.8,3.8,0,0,0,.1-3l-2.3-8.2,2-.6,2.2,8.2a5.7,5.7,0,0,1-.2,4.5,6.1,6.1,0,0,1-3.8,3A6,6,0,0,1,110.4,44.7Z"/><path class="cls-1" d="M123.2,28.5l9.8-1.3.3,1.9-3.9.5L131,42l-2.1.3-1.6-12.4-3.9.5Z"/><path class="cls-1" d="M145.3,34.7v6.6h-2.1V34.7l-4.9-7.9h2.3l3.6,5.9,3.8-5.8h2.3Z"/><path class="cls-1" d="M171.3,35.4a1.7,1.7,0,0,1,1.2,2,1.7,1.7,0,0,1-2,1.1,1.6,1.6,0,0,1-1.1-1.9A1.6,1.6,0,0,1,171.3,35.4Z"/><path class="cls-1" d="M196.1,52.5l-1.3-.7-.4-7.9-4.8,8.5-1.8-1L195,38.8l1.2.7.5,10.4,9.2-4.9,1.2.7L200,58.3l-1.8-1,4.8-8.5Z"/><path class="cls-1" d="M213.5,50.4l1.6,1.2-8.7,11.5-1.7-1.2Z"/><path class="cls-1" d="M220,60.7l-7.5,7.5-1.4-1.4,10.1-10.3,1,1L221,71.1l7.4-7.5,1.5,1.4L219.7,75.3l-1-1Z"/><path class="cls-1" d="M223.5,79.8l11.7-8.4,2.5,3.5a7.4,7.4,0,0,1,1.8,4.8,7,7,0,0,1-3.1,5.7,7.1,7.1,0,0,1-6.4,1.1,7.7,7.7,0,0,1-4-3.2Zm14,.2a5.9,5.9,0,0,0-1.4-4.1l-1.3-1.7-8.5,6.1,1.2,1.8a6.3,6.3,0,0,0,3.4,2.6,5.5,5.5,0,0,0,4.3-.9A5.9,5.9,0,0,0,237.5,80Z"/><path class="cls-1" d="M248.2,104.4a1.7,1.7,0,0,1-.9,2.1,1.5,1.5,0,0,1-2-1,1.5,1.5,0,0,1,.9-2A1.6,1.6,0,0,1,248.2,104.4Z"/><path class="cls-1" d="M244.7,127.2l14.3-1.8.7,4.9a4.3,4.3,0,0,1-.7,3,3.8,3.8,0,0,1-2.6,1.6,3.9,3.9,0,0,1-2.7-.8,4.2,4.2,0,0,1-6.9,1.6,4.5,4.5,0,0,1-1.4-3Zm9.3,3.4a2.4,2.4,0,0,0,.8,1.9,1.5,1.5,0,0,0,1.3.3,1.7,1.7,0,0,0,1.2-.6,2.7,2.7,0,0,0,.4-2.1l-.3-2.4-3.7.4Zm-6.7,1.5a3.3,3.3,0,0,0,1,2.3,2.7,2.7,0,0,0,1.8.4,2.4,2.4,0,0,0,1.6-.9,2.8,2.8,0,0,0,.4-2.4l-.4-3.1-4.8.6Z"/><path class="cls-1" d="M252.9,144.4l-6.8-.2v-2l14.4.3v5.1a5.2,5.2,0,0,1-.9,2.8,4.2,4.2,0,0,1-3,1.3,3.8,3.8,0,0,1-3-1.5,4.4,4.4,0,0,1-.7-1.7l-7,5V151l6.9-5Zm1.9,2.9a2.6,2.6,0,0,0,.5,1.8,1.9,1.9,0,0,0,1.3.5,1.3,1.3,0,0,0,1.3-.5,1.9,1.9,0,0,0,.6-1.7v-2.9h-3.7Z"/><path class="cls-1" d="M252.8,165.7l-1.9-.4.8-4.6-4.8-.8-1,6.3-2-.4,1.4-8.3,14.2,2.4-1.3,8.1-1.9-.3,1-6.1-3.7-.6Z"/><path class="cls-1" d="M243.8,179.7l1.9-5.8-3.1-2.5.6-2.1,12,10.1-.5,1.4-15.5,1.3.6-2.1Zm3.5-4.4-1.4,4.2,5.8-.4Z"/><path class="cls-1" d="M251.6,189.4l-4.1,9-1.8-.8,1.6-3.6L236,188.8l.9-1.9,11.3,5.3,1.7-3.6Z"/><path class="cls-1" d="M232.5,208.3l4.4-6.7-5.7-3.7,1.1-1.8,12.1,8-1.1,1.7-4.8-3.1-4.4,6.7,4.7,3.1-1.1,1.8-12-8,1.1-1.7Z"/><path class="cls-1" d="M223.9,221.8l-1.5-1.4,3.2-3.5-3.6-3.2-4.3,4.7-1.4-1.3,5.6-6.3,10.7,9.7-5.5,6.1-1.4-1.3,4.1-4.6-2.8-2.5Z"/><path class="cls-1" d="M135.1,146.8c.6-2.3,2-3.8,4.2-3.8s4.6,3.1,6.6,3.1,2.2-1.3,2.7-2.7l1.6.8c-.7,2.3-2.1,3.7-4.2,3.7s-4.7-3-6.7-3-2.1,1.2-2.6,2.7Z"/><path class="cls-1" d="M151.8,319.2c.7-2.3,2.1-3.7,4.2-3.7s4.7,3,6.7,3,2.2-1.2,2.6-2.6l1.7.7c-.7,2.3-2.1,3.8-4.2,3.8s-4.7-3.1-6.7-3.1-2.2,1.3-2.7,2.7Z"/></svg>
